# xmcd
#
# Track frame offsets:
#	182
#	15300
#	29955
#	44750
#	57645
#	71582
#	85815
#	99090
#	114827
#	129867
#	142147
#	157657
#	171087
#	184997
#	199302
#	212672
#	227325
#	242072
#	256510
#	270782
#
# Disc length: 3810 seconds
# Revision: 0
# Processed by: cddbd v1.5.2PL0 Copyright (c) Steve Scherf et al.
# Submitted via: dBpowerAMP V12.0
#
DISCID=090ee014
DTITLE=Various Artist - The Piano Blues, Paramount Vol. 2, 1927-1932
DYEAR=1991
DGENRE=Blues
TTITLE0=Jabo Williams - Pratt City Blues
TTITLE1=Henry Brown - Eastern Chimes Blues
TTITLE2=Freddie Brown - Raised In The Alley Blues
TTITLE3=Skip James - 22-2- Blues
TTITLE4=Raymond Barrow - Walking Blues
TTITLE5=Charley Taylor - Heavy Suitcase Blues
TTITLE6=Barrel House Welch - Dying Pickpocket Blues
TTITLE7=Louise Johnson - Long Ways From Home
TTITLE8=Jabo Williams - Polock Blues
TTITLE9=James Wiggins - Weary Heart Blues
TTITLE10=Will Ezell - Old Mill Blues
TTITLE11=Henry Brown and Ike Rodgers - Blind Boy Blues
TTITLE12=Louise Johnson - On The Wall
TTITLE13=Charley Taylor - Louisiana Bound
TTITLE14=Barrel House Welch - Larceny Woman Blues
TTITLE15=Mead Lux Lewis - Honky Tonk Train Blues
TTITLE16=Will Ezell - Playing The Dozen
TTITLE17=Freddie Brown - Whip It To A Jelly
TTITLE18=Henry Brown - Deep Morgan Blues
TTITLE19=Jabo Williams - Jab Blues
EXTD=
EXTT0=
EXTT1=
EXTT2=
EXTT3=
EXTT4=
EXTT5=
EXTT6=
EXTT7=
EXTT8=
EXTT9=
EXTT10=
EXTT11=
EXTT12=
EXTT13=
EXTT14=
EXTT15=
EXTT16=
EXTT17=
EXTT18=
EXTT19=
PLAYORDER=
